<svg id="svg" xmlns="http://www.w3.org/2000/svg" viewBox="29 0.3299999237060547 934 794" height="794"><path d="M 39,303.33 L 42,303.33 L 48,303.33 L 54,303.33 L 61,303.33 L 66,304.33 L 69,304.33 L 71,304.33" fill="none" stroke="#3794ff" stroke-width="2"></path><path d="M 65,296.33 L 64,296.33 L 64,296.33 L 64,296.33 L 66,296.33 L 70,297.33 L 73,299.33 L 75,302.33 L 76,306.33 L 76,311.33 L 75,316.33 L 72,318.33 L 67,318.33 L 61,318.33 L 57,316.33 L 56,315.33" fill="none" stroke="#3794ff" stroke-width="2"></path><path d="M 86,185.33 L 87,185.33 L 87,192.33 L 87,203.33 L 87,222.33 L 85,245.33 L 83,274.33 L 83,308.33 L 84,346.33 L 88,378.33 L 90,407.33 L 90,430.33 L 90,451.33 L 87,470.33 L 83,487.33 L 81,501.33 L 79,517.33 L 79,532.33 L 79,541.33 L 79,549.33 L 79,554.33 L 79,560.33 L 80,568.33 L 81,576.33 L 82,586.33 L 83,595.33 L 83,602.33 L 83,608.33 L 83,615.33 L 82,623.33 L 82,630.33 L 81,636.33 L 81,643.33 L 80,649.33 L 80,655.33 L 80,663.33 L 79,669.33 L 79,675.33 L 78,680.33 L 78,685.33 L 78,690.33 L 77,696.33 L 77,700.33 L 76,702.33 L 76,704.33 L 75,706.33 L 75,708.33 L 75,709.33 L 75,710.33 L 76,711.33 L 78,711.33 L 81,712.33 L 86,712.33 L 95,713.33 L 108,714.33 L 124,716.33 L 143,719.33 L 165,722.33 L 192,726.33 L 221,729.33 L 251,733.33 L 284,737.33 L 321,742.33 L 355,745.33 L 391,748.33 L 423,751.33 L 456,753.33 L 487,756.33 L 517,759.33 L 546,761.33 L 569,763.33 L 594,765.33 L 617,766.33 L 636,767.33 L 657,768.33 L 677,769.33 L 697,770.33 L 716,771.33 L 736,773.33 L 754,775.33 L 773,777.33 L 793,779.33 L 812,780.33 L 831,782.33 L 849,784.33 L 866,784.33 L 881,784.33 L 892,784.33 L 901,784.33 L 908,783.33 L 915,781.33 L 920,780.33 L 925,777.33 L 930,773.33 L 935,768.33 L 938,762.33 L 942,756.33 L 944,747.33 L 947,734.33 L 948,711.33 L 949,682.33 L 949,655.33 L 950,624.33 L 951,589.33 L 952,551.33 L 952,505.33 L 953,451.33 L 953,407.33 L 953,364.33 L 951,325.33 L 947,287.33 L 940,253.33 L 934,224.33 L 929,202.33 L 926,187.33 L 924,170.33 L 923,153.33 L 923,137.33 L 923,122.33 L 924,110.33 L 924,103.33 L 924,96.33 L 924,90.33 L 924,86.33 L 924,83.33 L 923,80.33 L 922,79.33 L 920,76.33 L 916,73.33 L 910,69.33 L 899,66.33 L 882,65.33 L 856,65.33 L 824,65.33 L 787,67.33 L 745,67.33 L 707,68.33 L 661,68.33 L 614,68.33 L 564,68.33 L 512,66.33 L 463,63.33 L 422,58.33 L 383,53.33 L 345,48.33 L 313,44.33 L 281,43.33 L 249,41.33 L 217,41.33 L 191,41.33 L 164,41.33 L 142,41.33 L 126,41.33 L 111,40.33 L 99,39.33 L 87,39.33 L 76,39.33 L 65,39.33 L 58,39.33 L 51,40.33 L 47,41.33 L 46,42.33 L 45,44.33 L 45,47.33 L 48,51.33 L 51,55.33 L 54,59.33 L 57,61.33 L 59,62.33 L 61,63.33 L 62,63.33 L 63,64.33 L 65,62.33 L 69,57.33 L 76,50.33 L 81,44.33 L 84,40.33 L 85,40.33 L 84,45.33 L 82,54.33 L 81,65.33 L 81,79.33 L 81,100.33 L 83,125.33 L 85,151.33 L 86,176.33 L 87,191.33 L 88,198.33 L 88,199.33" fill="none" stroke="#3794ff" stroke-width="2"></path><path d="M 130,14.33 L 130,15.33 L 130,15.33 L 130,17.33 L 129,21.33 L 128,26.33 L 126,31.33 L 125,33.33 L 125,34.33 L 125,33.33 L 125,31.33 L 125,29.33 L 125,25.33 L 125,23.33 L 127,22.33 L 128,22.33 L 132,25.33 L 136,31.33 L 141,36.33 L 145,38.33 L 146,38.33 L 147,38.33 L 147,37.33 L 145,35.33 L 141,33.33" fill="none" stroke="#3794ff" stroke-width="2"></path><path d="M 129,25.33 L 131,23.33 L 135,20.33 L 140,17.33 L 145,13.33 L 148,12.33 L 148,11.33" fill="none" stroke="#3794ff" stroke-width="2"></path><path d="M 162,32.33 L 163,32.33 L 164,31.33 L 166,27.33 L 169,22.33 L 171,18.33 L 172,14.33 L 172,12.33 L 172,11.33 L 171,10.33 L 170,10.33 L 168,12.33 L 167,14.33 L 167,17.33 L 167,20.33 L 168,24.33 L 170,28.33 L 172,32.33 L 173,34.33 L 173,35.33 L 173,36.33 L 170,37.33 L 167,37.33 L 163,37.33 L 162,35.33 L 161,33.33 L 161,31.33" fill="none" stroke="#3794ff" stroke-width="2"></path><path d="M 178,29.33 L 179,29.33 L 181,27.33 L 183,23.33 L 186,20.33 L 187,17.33 L 188,15.33 L 188,14.33 L 188,15.33 L 188,17.33 L 189,20.33 L 191,24.33 L 192,28.33 L 194,32.33 L 194,34.33 L 195,35.33 L 194,35.33 L 193,35.33 L 193,34.33 L 192,34.33 L 192,33.33" fill="none" stroke="#3794ff" stroke-width="2"></path><path d="M 73,269.33 L 73,268.33 L 73,268.33 L 77,268.33 L 85,268.33 L 95,268.33 L 104,268.33 L 111,268.33 L 116,268.33 L 117,268.33" fill="none" stroke="#3794ff" stroke-width="2"></path><path d="M 77,268.33 L 77,270.33 L 75,273.33 L 74,279.33 L 74,287.33 L 74,296.33 L 74,306.33 L 75,314.33 L 76,320.33 L 77,324.33 L 78,326.33 L 79,329.33 L 79,330.33 L 79,331.33 L 79,332.33 L 79,333.33 L 79,332.33 L 81,331.33 L 87,329.33 L 96,326.33 L 106,325.33 L 115,325.33 L 125,324.33 L 132,324.33 L 136,324.33" fill="none" stroke="#3794ff" stroke-width="2"></path><path d="M 129,269.33 L 129,270.33 L 129,271.33 L 128,276.33 L 127,286.33 L 126,296.33 L 126,305.33 L 126,309.33 L 126,312.33 L 126,313.33 L 126,314.33 L 126,315.33 L 126,316.33" fill="none" stroke="#3794ff" stroke-width="2"></path><path d="M 94,285.33 L 93,285.33 L 92,287.33 L 89,290.33 L 88,293.33 L 87,295.33 L 87,296.33 L 87,297.33 L 87,298.33 L 87,299.33 L 87,300.33 L 88,300.33 L 90,300.33 L 91,300.33 L 92,299.33 L 92,298.33 L 93,298.33 L 95,297.33" fill="none" stroke="#3794ff" stroke-width="2"></path><path d="M 88,282.33 L 88,283.33 L 88,286.33 L 87,290.33 L 87,293.33 L 87,297.33 L 87,298.33 L 87,300.33 L 87,302.33 L 87,303.33 L 88,303.33 L 90,302.33 L 92,300.33 L 95,299.33 L 97,299.33 L 99,299.33 L 99,300.33" fill="none" stroke="#3794ff" stroke-width="2"></path><path d="M 103,287.33 L 103,288.33 L 103,292.33 L 103,296.33 L 102,301.33 L 101,304.33 L 101,305.33" fill="none" stroke="#3794ff" stroke-width="2"></path><path d="M 102,284.33 L 103,284.33 L 105,284.33 L 107,285.33 L 108,286.33 L 108,288.33 L 109,289.33 L 109,290.33 L 108,292.33 L 107,292.33 L 106,292.33 L 106,291.33 L 108,290.33 L 111,290.33 L 112,291.33 L 113,294.33 L 113,296.33 L 113,298.33 L 112,300.33 L 110,300.33 L 108,300.33 L 107,299.33 L 106,299.33" fill="none" stroke="#3794ff" stroke-width="2"></path><path d="M 129,299.33 L 132,300.33 L 136,300.33 L 141,301.33 L 147,301.33 L 151,299.33 L 156,297.33 L 160,295.33 L 162,294.33 L 162,293.33 L 162,291.33 L 162,289.33 L 162,282.33 L 160,275.33 L 158,267.33 L 158,261.33 L 158,254.33 L 158,248.33 L 159,243.33 L 160,239.33 L 160,236.33 L 161,235.33 L 161,236.33 L 161,237.33 L 162,238.33 L 166,239.33 L 171,239.33 L 174,239.33 L 176,239.33" fill="none" stroke="#3794ff" stroke-width="2"></path><path d="M 169,228.33 L 170,228.33 L 173,228.33 L 177,231.33 L 181,232.33 L 182,232.33 L 182,233.33 L 182,235.33 L 181,239.33 L 177,245.33 L 175,249.33" fill="none" stroke="#3794ff" stroke-width="2"></path><path d="M 158,293.33 L 159,293.33 L 160,293.33 L 163,294.33 L 166,294.33 L 169,295.33 L 170,295.33 L 172,295.33 L 173,295.33" fill="none" stroke="#3794ff" stroke-width="2"></path><path d="M 174,287.33 L 176,289.33 L 181,290.33 L 183,290.33 L 184,292.33 L 185,293.33 L 185,296.33 L 183,299.33 L 182,301.33 L 181,302.33 L 180,302.33 L 179,302.33" fill="none" stroke="#3794ff" stroke-width="2"></path><path d="M 160,303.33 L 159,307.33 L 158,313.33 L 158,324.33 L 156,337.33 L 155,346.33 L 155,355.33 L 154,362.33 L 154,366.33 L 154,369.33 L 154,371.33 L 153,373.33 L 153,372.33 L 153,371.33 L 153,370.33 L 153,369.33 L 155,368.33 L 158,367.33 L 162,367.33 L 165,367.33 L 167,368.33 L 168,368.33" fill="none" stroke="#3794ff" stroke-width="2"></path><path d="M 165,359.33 L 166,359.33 L 167,359.33 L 170,359.33 L 173,360.33 L 173,361.33 L 173,362.33 L 173,365.33 L 169,369.33 L 166,373.33 L 164,374.33" fill="none" stroke="#3794ff" stroke-width="2"></path><path d="M 190,208.33 L 189,209.33 L 189,212.33 L 189,216.33 L 189,224.33 L 189,233.33 L 188,246.33 L 187,255.33 L 187,261.33 L 187,263.33 L 187,264.33 L 187,265.33 L 188,265.33 L 190,263.33 L 195,260.33 L 202,260.33 L 214,260.33 L 228,263.33 L 240,265.33 L 250,265.33 L 255,265.33 L 258,263.33 L 258,261.33" fill="none" stroke="#3794ff" stroke-width="2"></path><path d="M 266,204.33 L 266,205.33 L 266,212.33 L 266,223.33 L 264,233.33 L 264,242.33 L 264,249.33 L 264,253.33 L 264,255.33 L 263,258.33 L 262,258.33" fill="none" stroke="#3794ff" stroke-width="2"></path><path d="M 188,214.33 L 192,214.33 L 199,214.33 L 210,214.33 L 221,214.33 L 235,213.33 L 247,212.33 L 255,212.33 L 258,212.33" fill="none" stroke="#3794ff" stroke-width="2"></path><path d="M 188,282.33 L 188,284.33 L 187,288.33 L 187,293.33 L 186,300.33 L 186,305.33 L 186,311.33 L 186,314.33 L 188,317.33 L 193,320.33 L 197,322.33 L 201,324.33 L 205,325.33 L 210,325.33 L 217,325.33 L 225,324.33 L 233,323.33 L 240,323.33 L 241,322.33" fill="none" stroke="#3794ff" stroke-width="2"></path><path d="M 255,303.33 L 255,309.33 L 253,317.33 L 252,323.33 L 252,326.33 L 252,327.33 L 251,327.33" fill="none" stroke="#3794ff" stroke-width="2"></path><path d="M 190,289.33 L 200,290.33 L 211,291.33 L 221,292.33 L 233,292.33 L 242,292.33 L 247,292.33 L 248,291.33" fill="none" stroke="#3794ff" stroke-width="2"></path><path d="M 181,346.33 L 180,346.33 L 179,348.33 L 177,354.33 L 175,361.33 L 175,371.33 L 177,386.33 L 180,403.33 L 181,408.33 L 182,410.33 L 184,410.33 L 187,408.33 L 193,403.33 L 201,401.33 L 210,400.33 L 220,400.33 L 228,400.33 L 231,400.33 L 233,400.33 L 233,399.33" fill="none" stroke="#3794ff" stroke-width="2"></path><path d="M 243,369.33 L 243,370.33 L 243,374.33 L 243,383.33 L 240,393.33 L 238,398.33 L 236,399.33 L 235,399.33" fill="none" stroke="#3794ff" stroke-width="2"></path><path d="M 169,353.33 L 171,353.33 L 181,353.33 L 196,353.33 L 213,353.33 L 228,353.33 L 241,353.33 L 246,353.33" fill="none" stroke="#3794ff" stroke-width="2"></path><path d="M 268,241.33 L 272,241.33 L 278,241.33 L 284,242.33 L 287,242.33" fill="none" stroke="#3794ff" stroke-width="2"></path><path d="M 287,232.33 L 288,232.33 L 293,233.33 L 297,234.33 L 299,234.33 L 299,235.33 L 296,239.33 L 290,243.33 L 284,246.33 L 282,248.33" fill="none" stroke="#3794ff" stroke-width="2"></path><path d="M 260,318.33 L 265,319.33 L 271,318.33 L 276,317.33 L 280,315.33 L 281,315.33" fill="none" stroke="#3794ff" stroke-width="2"></path><path d="M 280,308.33 L 282,310.33 L 288,313.33 L 292,314.33 L 295,314.33 L 295,315.33 L 295,316.33 L 294,318.33 L 291,321.33 L 287,325.33 L 286,326.33 L 285,327.33 L 285,327.33" fill="none" stroke="#3794ff" stroke-width="2"></path><path d="M 258,369.33 L 259,369.33 L 262,370.33 L 268,370.33 L 274,370.33 L 278,370.33" fill="none" stroke="#3794ff" stroke-width="2"></path><path d="M 267,365.33 L 268,365.33 L 271,367.33 L 276,368.33 L 279,368.33 L 280,368.33 L 280,369.33 L 280,370.33 L 277,372.33 L 277,373.33 L 277,374.33" fill="none" stroke="#3794ff" stroke-width="2"></path><path d="M 308,145.33 L 308,146.33 L 308,152.33 L 308,165.33 L 308,195.33 L 308,233.33 L 305,277.33 L 304,335.33 L 304,394.33 L 304,434.33 L 302,473.33 L 299,501.33 L 296,521.33 L 294,540.33 L 293,555.33 L 293,567.33 L 293,573.33 L 292,576.33 L 292,579.33 L 291,583.33 L 290,592.33 L 289,601.33 L 288,609.33 L 286,617.33 L 285,624.33 L 284,629.33 L 284,635.33 L 284,640.33 L 283,643.33 L 283,645.33 L 283,646.33 L 283,647.33 L 283,648.33 L 283,649.33 L 283,650.33 L 283,651.33 L 283,652.33 L 286,653.33 L 293,655.33 L 304,655.33 L 319,654.33 L 335,654.33 L 351,655.33 L 372,658.33 L 389,661.33 L 403,663.33 L 415,664.33 L 421,664.33" fill="none" stroke="#3794ff" stroke-width="2"></path><path d="M 298,151.33 L 303,154.33 L 312,155.33 L 323,155.33 L 338,155.33 L 358,154.33 L 384,152.33 L 406,150.33 L 426,148.33 L 440,146.33 L 445,145.33 L 446,145.33 L 446,146.33 L 445,151.33 L 442,160.33 L 440,176.33 L 439,202.33 L 439,244.33 L 440,293.33 L 441,344.33 L 442,397.33 L 442,444.33 L 441,484.33 L 440,523.33 L 439,555.33 L 437,576.33 L 435,587.33 L 434,592.33 L 434,594.33 L 434,595.33 L 433,596.33 L 433,597.33 L 433,600.33 L 432,605.33 L 431,612.33 L 431,620.33 L 431,627.33 L 431,633.33 L 431,639.33 L 431,647.33 L 431,654.33 L 431,660.33 L 431,664.33 L 431,667.33 L 431,668.33" fill="none" stroke="#3794ff" stroke-width="2"></path><path d="M 351,256.33 L 351,257.33 L 351,265.33 L 351,277.33 L 351,284.33 L 351,285.33 L 351,284.33" fill="none" stroke="#3794ff" stroke-width="2"></path><path d="M 359,240.33 L 359,239.33 L 365,239.33 L 371,239.33 L 374,239.33 L 374,241.33 L 374,247.33 L 372,252.33 L 366,259.33 L 358,263.33 L 350,264.33 L 344,264.33 L 343,264.33 L 344,264.33 L 352,263.33 L 363,263.33 L 371,265.33 L 377,269.33 L 380,274.33 L 380,279.33 L 378,283.33 L 373,286.33 L 367,288.33 L 365,289.33 L 364,289.33 L 364,290.33" fill="none" stroke="#3794ff" stroke-width="2"></path><path d="M 349,329.33 L 348,329.33 L 347,330.33 L 346,336.33 L 346,346.33 L 346,356.33 L 349,362.33 L 353,366.33 L 357,368.33 L 360,368.33 L 363,363.33 L 366,355.33 L 370,345.33 L 372,332.33 L 372,324.33 L 373,323.33" fill="none" stroke="#3794ff" stroke-width="2"></path><path d="M 355,412.33 L 354,413.33 L 352,415.33 L 349,418.33 L 349,422.33 L 350,425.33 L 355,428.33 L 361,431.33 L 363,431.33 L 363,432.33 L 363,433.33 L 361,433.33 L 357,433.33 L 356,433.33 L 355,433.33 L 355,430.33 L 353,428.33" fill="none" stroke="#3794ff" stroke-width="2"></path><path d="M 356,410.33 L 354,411.33 L 353,412.33 L 354,412.33 L 355,412.33 L 356,412.33 L 356,411.33 L 353,414.33 L 351,419.33 L 350,425.33 L 351,429.33 L 357,431.33 L 362,433.33 L 365,434.33 L 366,435.33 L 366,438.33 L 363,442.33 L 355,448.33 L 350,450.33 L 348,450.33 L 348,451.33 L 349,451.33 L 351,451.33 L 352,451.33" fill="none" stroke="#3794ff" stroke-width="2"></path><path d="M 450,200.33 L 456,200.33 L 468,201.33 L 483,202.33 L 495,202.33 L 507,201.33 L 515,200.33 L 520,198.33 L 522,198.33" fill="none" stroke="#3794ff" stroke-width="2"></path><path d="M 455,201.33 L 457,201.33 L 459,202.33 L 462,206.33 L 464,208.33 L 465,210.33 L 465,211.33 L 465,212.33" fill="none" stroke="#3794ff" stroke-width="2"></path><path d="M 454,202.33 L 454,201.33 L 454,200.33 L 454,199.33 L 454,198.33 L 454,197.33 L 456,195.33 L 461,192.33 L 466,190.33 L 471,188.33 L 475,188.33" fill="none" stroke="#3794ff" stroke-width="2"></path><path d="M 515,187.33 L 516,187.33 L 517,187.33 L 519,188.33 L 523,191.33 L 525,193.33 L 526,195.33 L 526,198.33 L 523,202.33 L 518,207.33 L 515,208.33 L 514,209.33" fill="none" stroke="#3794ff" stroke-width="2"></path><path d="M 555,168.33 L 555,169.33 L 555,170.33 L 555,177.33 L 556,186.33 L 556,197.33 L 556,206.33 L 557,212.33 L 558,213.33 L 559,213.33 L 562,213.33 L 570,213.33 L 580,213.33 L 590,214.33 L 600,214.33 L 608,213.33 L 612,210.33 L 614,207.33" fill="none" stroke="#3794ff" stroke-width="2"></path><path d="M 620,185.33 L 624,190.33 L 626,197.33 L 628,204.33 L 630,210.33 L 630,214.33 L 630,216.33 L 630,217.33 L 628,217.33" fill="none" stroke="#3794ff" stroke-width="2"></path><path d="M 572,180.33 L 573,180.33 L 574,180.33 L 580,180.33 L 593,180.33 L 605,180.33 L 616,180.33 L 622,180.33" fill="none" stroke="#3794ff" stroke-width="2"></path><path d="M 468,299.33 L 470,298.33 L 474,297.33 L 480,296.33 L 487,295.33 L 491,295.33 L 494,295.33 L 498,296.33 L 500,296.33" fill="none" stroke="#3794ff" stroke-width="2"></path><path d="M 502,287.33 L 505,287.33 L 510,288.33 L 513,290.33 L 515,290.33 L 515,291.33 L 515,292.33 L 515,293.33 L 515,295.33 L 515,297.33 L 513,298.33 L 511,300.33 L 511,301.33" fill="none" stroke="#3794ff" stroke-width="2"></path><path d="M 463,300.33 L 463,301.33 L 465,302.33 L 466,302.33 L 468,303.33 L 469,305.33 L 472,307.33 L 473,309.33 L 474,310.33" fill="none" stroke="#3794ff" stroke-width="2"></path><path d="M 467,301.33 L 467,300.33 L 468,299.33 L 470,299.33 L 473,297.33 L 476,296.33 L 477,295.33 L 479,295.33 L 480,295.33" fill="none" stroke="#3794ff" stroke-width="2"></path><path d="M 533,279.33 L 533,281.33 L 533,286.33 L 532,293.33 L 531,301.33 L 530,306.33 L 530,309.33 L 531,312.33 L 536,314.33 L 542,316.33 L 550,317.33 L 558,319.33 L 567,321.33 L 577,321.33 L 588,321.33 L 599,318.33 L 606,313.33 L 610,308.33 L 611,305.33" fill="none" stroke="#3794ff" stroke-width="2"></path><path d="M 615,283.33 L 615,284.33 L 615,288.33 L 616,295.33 L 616,304.33 L 618,312.33 L 618,315.33 L 618,316.33" fill="none" stroke="#3794ff" stroke-width="2"></path><path d="M 528,280.33 L 529,279.33 L 536,279.33 L 548,279.33 L 567,280.33 L 584,282.33 L 599,283.33 L 610,284.33 L 613,285.33" fill="none" stroke="#3794ff" stroke-width="2"></path><path d="M 460,375.33 L 464,375.33 L 471,375.33 L 480,375.33 L 488,375.33 L 493,375.33 L 495,375.33" fill="none" stroke="#3794ff" stroke-width="2"></path><path d="M 459,378.33 L 459,382.33 L 461,385.33 L 463,387.33 L 465,388.33 L 464,388.33 L 463,386.33 L 460,384.33 L 458,381.33 L 456,378.33 L 456,374.33 L 456,370.33 L 456,368.33 L 456,366.33 L 457,366.33 L 458,365.33 L 459,365.33 L 461,365.33" fill="none" stroke="#3794ff" stroke-width="2"></path><path d="M 485,369.33 L 486,369.33 L 487,369.33 L 490,370.33 L 492,372.33 L 493,373.33 L 494,374.33 L 494,377.33 L 490,381.33 L 484,385.33 L 481,388.33 L 479,389.33" fill="none" stroke="#3794ff" stroke-width="2"></path><path d="M 518,356.33 L 518,357.33 L 518,360.33 L 518,366.33 L 517,372.33 L 517,380.33 L 517,386.33 L 521,388.33 L 525,389.33 L 534,390.33 L 545,392.33 L 556,394.33 L 567,397.33 L 576,398.33 L 583,398.33 L 587,398.33 L 592,396.33 L 594,395.33" fill="none" stroke="#3794ff" stroke-width="2"></path><path d="M 616,362.33 L 616,367.33 L 616,376.33 L 616,385.33 L 616,391.33 L 616,394.33 L 616,395.33" fill="none" stroke="#3794ff" stroke-width="2"></path><path d="M 509,360.33 L 515,360.33 L 524,362.33 L 536,362.33 L 550,362.33 L 566,362.33 L 583,359.33 L 602,358.33 L 618,356.33 L 628,356.33 L 630,356.33" fill="none" stroke="#3794ff" stroke-width="2"></path><path d="M 224,84.33 L 224,85.33 L 224,89.33 L 224,95.33 L 224,102.33 L 224,108.33 L 222,113.33 L 222,115.33" fill="none" stroke="#3794ff" stroke-width="2"></path><path d="M 233,73.33 L 240,73.33 L 245,74.33 L 248,77.33 L 249,80.33 L 249,83.33 L 248,85.33 L 244,85.33 L 237,85.33 L 229,84.33 L 224,82.33" fill="none" stroke="#3794ff" stroke-width="2"></path><path d="M 601,100.33 L 600,100.33 L 596,100.33 L 591,101.33 L 585,104.33 L 579,110.33 L 577,115.33 L 576,119.33 L 576,120.33 L 576,122.33 L 582,124.33 L 591,125.33 L 600,125.33 L 610,125.33 L 615,124.33" fill="none" stroke="#3794ff" stroke-width="2"></path><path d="M 445,605.33 L 449,606.33 L 455,606.33 L 461,606.33 L 468,605.33 L 474,603.33 L 482,603.33 L 490,604.33 L 496,606.33 L 499,607.33" fill="none" stroke="#3794ff" stroke-width="2"></path><path d="M 484,592.33 L 485,592.33 L 488,593.33 L 491,595.33 L 492,596.33 L 492,598.33 L 492,601.33 L 490,607.33 L 487,614.33 L 485,618.33 L 484,618.33 L 483,618.33" fill="none" stroke="#3794ff" stroke-width="2"></path><path d="M 447,610.33 L 448,614.33 L 450,617.33 L 451,618.33 L 452,618.33 L 452,619.33 L 453,619.33 L 452,617.33 L 451,614.33 L 450,611.33 L 448,608.33 L 446,605.33 L 443,602.33 L 442,599.33 L 443,599.33 L 444,599.33 L 445,599.33 L 447,597.33 L 449,595.33 L 450,594.33" fill="none" stroke="#3794ff" stroke-width="2"></path><path d="M 519,579.33 L 519,581.33 L 519,587.33 L 519,597.33 L 517,610.33 L 515,621.33 L 513,627.33 L 513,631.33 L 514,631.33 L 516,632.33 L 519,632.33 L 525,632.33 L 534,632.33 L 545,631.33 L 558,631.33 L 568,631.33 L 579,631.33 L 587,631.33 L 592,629.33 L 597,626.33 L 599,623.33" fill="none" stroke="#3794ff" stroke-width="2"></path><path d="M 600,587.33 L 600,588.33 L 600,589.33 L 602,597.33 L 604,607.33 L 604,617.33 L 604,624.33 L 604,627.33 L 604,628.33" fill="none" stroke="#3794ff" stroke-width="2"></path><path d="M 527,583.33 L 535,583.33 L 548,583.33 L 561,583.33 L 574,583.33 L 583,583.33 L 587,583.33" fill="none" stroke="#3794ff" stroke-width="2"></path><path d="M 528,534.33 L 528,535.33 L 528,536.33 L 528,541.33 L 528,545.33 L 528,547.33 L 528,546.33 L 528,542.33 L 531,537.33 L 534,534.33 L 536,532.33 L 539,532.33 L 540,532.33 L 542,532.33 L 543,535.33 L 544,538.33 L 544,542.33 L 544,545.33 L 544,547.33 L 544,546.33 L 544,544.33 L 544,540.33 L 545,536.33 L 547,534.33 L 549,532.33 L 552,532.33 L 553,532.33 L 554,533.33 L 555,537.33 L 555,542.33 L 555,546.33 L 555,548.33 L 555,547.33 L 556,544.33 L 556,543.33" fill="none" stroke="#3794ff" stroke-width="2"></path><path d="M 568,526.33 L 571,528.33 L 572,530.33 L 573,532.33 L 573,534.33 L 573,537.33 L 573,538.33 L 570,538.33 L 568,538.33 L 567,538.33 L 566,539.33 L 564,541.33 L 562,543.33 L 561,545.33 L 561,546.33 L 561,547.33 L 561,548.33 L 563,548.33 L 565,548.33 L 571,547.33 L 575,544.33 L 576,543.33" fill="none" stroke="#3794ff" stroke-width="2"></path><path d="M 581,532.33 L 581,533.33 L 581,537.33 L 581,541.33 L 581,546.33 L 581,549.33 L 581,550.33 L 581,551.33 L 581,547.33 L 582,543.33 L 585,539.33 L 587,536.33 L 589,535.33 L 590,535.33 L 591,535.33 L 593,537.33 L 593,539.33 L 593,542.33 L 593,545.33 L 593,546.33 L 593,548.33 L 593,549.33" fill="none" stroke="#3794ff" stroke-width="2"></path><path d="M 600,533.33 L 601,533.33 L 604,533.33 L 605,533.33 L 605,534.33 L 606,534.33 L 606,536.33 L 605,538.33 L 603,540.33 L 601,541.33 L 599,541.33 L 598,542.33 L 598,543.33 L 597,545.33 L 596,546.33 L 596,547.33 L 596,548.33 L 599,547.33 L 602,545.33 L 605,544.33" fill="none" stroke="#3794ff" stroke-width="2"></path><path d="M 615,545.33 L 615,543.33 L 615,542.33 L 615,540.33 L 616,536.33 L 618,534.33 L 621,533.33 L 623,532.33 L 624,532.33 L 624,533.33 L 625,536.33 L 625,539.33 L 623,543.33 L 620,546.33 L 620,547.33 L 619,547.33 L 619,546.33 L 619,545.33 L 618,544.33 L 618,542.33" fill="none" stroke="#3794ff" stroke-width="2"></path><path d="M 622,537.33 L 623,538.33 L 625,540.33 L 626,543.33 L 626,547.33 L 626,551.33 L 624,554.33 L 622,555.33 L 620,556.33 L 618,556.33 L 616,556.33 L 615,556.33 L 614,554.33 L 614,550.33 L 614,547.33 L 614,544.33" fill="none" stroke="#3794ff" stroke-width="2"></path><path d="M 636,537.33 L 637,536.33 L 637,535.33 L 639,533.33 L 639,531.33 L 636,531.33 L 634,535.33 L 631,538.33 L 630,541.33 L 630,543.33 L 630,544.33 L 631,544.33 L 634,544.33 L 637,543.33 L 638,543.33 L 639,542.33" fill="none" stroke="#3794ff" stroke-width="2"></path><path d="M 644,531.33 L 645,533.33 L 645,535.33 L 645,539.33 L 645,542.33 L 645,543.33 L 645,544.33 L 645,543.33 L 646,540.33 L 647,537.33 L 649,535.33 L 651,534.33 L 653,534.33 L 653,535.33 L 653,538.33 L 653,541.33 L 653,543.33 L 653,544.33 L 653,543.33 L 653,542.33 L 653,539.33 L 655,536.33 L 656,535.33 L 657,535.33 L 658,535.33 L 658,537.33 L 659,540.33 L 659,542.33" fill="none" stroke="#3794ff" stroke-width="2"></path><path d="M 667,536.33 L 667,535.33 L 668,535.33 L 668,534.33 L 668,533.33 L 669,532.33 L 667,533.33 L 666,536.33 L 664,539.33 L 663,541.33 L 663,542.33 L 663,543.33 L 663,544.33 L 665,544.33 L 668,544.33 L 671,544.33 L 672,543.33 L 673,543.33 L 674,543.33 L 674,542.33" fill="none" stroke="#3794ff" stroke-width="2"></path><path d="M 677,534.33 L 677,535.33 L 677,539.33 L 677,541.33 L 677,542.33 L 678,542.33 L 679,540.33 L 680,538.33 L 682,536.33 L 683,535.33 L 684,535.33 L 684,537.33 L 685,539.33 L 686,541.33 L 686,543.33 L 687,543.33" fill="none" stroke="#3794ff" stroke-width="2"></path><path d="M 695,535.33 L 695,538.33 L 695,541.33 L 695,543.33 L 695,544.33 L 695,544.33 L 695,543.33" fill="none" stroke="#3794ff" stroke-width="2"></path><path d="M 688,528.33 L 689,528.33 L 690,528.33 L 694,528.33 L 698,527.33 L 700,527.33" fill="none" stroke="#3794ff" stroke-width="2"></path><path d="M 393,674.33 L 393,675.33 L 393,676.33 L 393,679.33 L 392,684.33 L 391,688.33 L 389,692.33 L 389,697.33 L 389,701.33 L 389,705.33 L 389,709.33 L 389,711.33 L 388,713.33 L 388,715.33 L 388,717.33 L 389,717.33 L 391,717.33 L 396,716.33 L 401,716.33 L 408,715.33 L 415,715.33 L 423,715.33 L 429,715.33 L 435,715.33 L 439,716.33 L 442,718.33 L 445,719.33 L 446,719.33 L 447,719.33 L 448,719.33" fill="none" stroke="#3794ff" stroke-width="2"></path><path d="M 446,707.33 L 449,709.33 L 454,711.33 L 458,712.33 L 460,712.33 L 459,715.33 L 454,719.33 L 448,725.33 L 443,731.33 L 442,733.33 L 441,733.33" fill="none" stroke="#3794ff" stroke-width="2"></path><path d="M 382,681.33 L 384,678.33 L 386,677.33 L 387,677.33 L 387,678.33 L 388,680.33 L 388,683.33 L 390,687.33 L 392,692.33 L 394,693.33 L 397,693.33 L 401,690.33 L 402,688.33 L 404,686.33 L 406,685.33" fill="none" stroke="#3794ff" stroke-width="2"></path><path d="M 479,692.33 L 479,693.33 L 479,697.33 L 478,705.33 L 477,715.33 L 475,723.33 L 475,727.33 L 475,729.33 L 477,731.33 L 478,732.33 L 480,733.33 L 482,734.33 L 487,734.33 L 496,734.33 L 508,734.33 L 522,735.33 L 534,735.33 L 543,735.33 L 548,734.33 L 551,731.33" fill="none" stroke="#3794ff" stroke-width="2"></path><path d="M 561,709.33 L 562,714.33 L 563,722.33 L 564,732.33 L 566,738.33 L 566,740.33 L 566,741.33 L 566,742.33 L 566,743.33" fill="none" stroke="#3794ff" stroke-width="2"></path><path d="M 480,696.33 L 482,697.33 L 485,699.33 L 491,700.33 L 501,700.33 L 514,700.33 L 527,700.33 L 538,700.33 L 545,700.33 L 550,700.33" fill="none" stroke="#3794ff" stroke-width="2"></path><path d="M 479,665.33 L 478,665.33 L 478,666.33 L 478,667.33 L 478,670.33 L 478,673.33 L 478,674.33 L 478,673.33 L 478,672.33 L 480,668.33 L 482,665.33 L 485,665.33 L 486,665.33 L 488,665.33 L 489,666.33 L 489,668.33 L 490,671.33 L 490,672.33 L 490,674.33 L 490,675.33 L 490,674.33 L 490,672.33 L 491,668.33 L 494,665.33 L 497,663.33 L 498,663.33 L 500,663.33 L 500,666.33 L 500,671.33 L 500,675.33 L 500,676.33 L 501,678.33 L 502,678.33" fill="none" stroke="#3794ff" stroke-width="2"></path><path d="M 515,678.33 L 514,678.33 L 509,677.33 L 505,676.33 L 504,675.33 L 503,673.33 L 503,671.33 L 504,668.33 L 508,667.33 L 510,667.33 L 513,667.33 L 515,667.33 L 517,668.33 L 517,670.33 L 517,674.33 L 515,676.33 L 513,679.33 L 512,679.33 L 512,678.33 L 512,677.33 L 512,676.33" fill="none" stroke="#3794ff" stroke-width="2"></path><path d="M 524,667.33 L 525,667.33 L 525,671.33 L 526,675.33 L 526,679.33 L 526,681.33 L 526,680.33 L 527,678.33 L 530,675.33 L 534,670.33 L 537,668.33 L 539,668.33 L 539,669.33 L 539,670.33 L 539,672.33 L 539,675.33 L 539,677.33 L 539,676.33 L 540,675.33" fill="none" stroke="#3794ff" stroke-width="2"></path><path d="M 555,668.33 L 555,672.33 L 555,676.33 L 555,677.33 L 555,678.33 L 556,676.33 L 556,675.33" fill="none" stroke="#3794ff" stroke-width="2"></path><path d="M 577,663.33 L 577,664.33 L 576,668.33 L 575,673.33 L 574,676.33 L 574,677.33 L 573,675.33 L 573,673.33" fill="none" stroke="#3794ff" stroke-width="2"></path><path d="M 568,659.33 L 570,660.33 L 573,661.33 L 575,661.33 L 578,661.33 L 579,661.33" fill="none" stroke="#3794ff" stroke-width="2"></path><path d="M 593,676.33 L 592,676.33 L 588,675.33 L 584,672.33 L 582,670.33 L 581,668.33 L 581,665.33 L 584,662.33 L 589,658.33 L 593,657.33 L 596,656.33 L 600,658.33 L 601,662.33 L 602,667.33 L 602,671.33" fill="none" stroke="#3794ff" stroke-width="2"></path><path d="M 617,651.33 L 618,654.33 L 618,658.33 L 618,663.33 L 618,667.33 L 617,669.33 L 617,670.33 L 616,668.33 L 616,665.33 L 616,661.33 L 616,657.33 L 616,655.33 L 617,655.33 L 619,655.33 L 620,657.33 L 620,658.33 L 620,660.33 L 620,661.33 L 620,662.33 L 621,664.33 L 622,666.33 L 623,667.33 L 624,668.33 L 624,669.33 L 625,670.33 L 626,670.33 L 627,670.33" fill="none" stroke="#3794ff" stroke-width="2"></path><path d="M 639,655.33 L 639,659.33 L 639,664.33 L 639,668.33 L 639,670.33 L 639,669.33" fill="none" stroke="#3794ff" stroke-width="2"></path><path d="M 652,657.33 L 652,658.33 L 652,662.33 L 651,666.33 L 650,669.33 L 650,670.33 L 650,668.33 L 651,664.33 L 654,661.33 L 657,659.33 L 659,659.33 L 661,659.33 L 662,662.33 L 662,665.33 L 662,667.33 L 662,669.33 L 663,670.33 L 665,670.33" fill="none" stroke="#3794ff" stroke-width="2"></path><path d="M 671,670.33 L 671,669.33 L 671,668.33 L 671,665.33 L 673,664.33 L 675,662.33 L 679,662.33 L 682,662.33 L 682,663.33 L 682,664.33 L 682,666.33 L 682,665.33 L 682,664.33 L 682,662.33" fill="none" stroke="#3794ff" stroke-width="2"></path><path d="M 684,662.33 L 684,664.33 L 684,670.33 L 684,674.33 L 682,676.33 L 680,678.33 L 678,679.33 L 676,679.33 L 674,679.33 L 673,679.33" fill="none" stroke="#3794ff" stroke-width="2"></path><path d="M 319,669.33 L 319,670.33 L 319,671.33 L 319,675.33 L 319,681.33 L 319,686.33 L 319,692.33 L 319,696.33 L 318,700.33 L 317,704.33 L 317,705.33 L 316,705.33 L 315,704.33 L 315,703.33 L 314,701.33 L 313,700.33 L 313,698.33 L 313,697.33 L 312,697.33 L 311,697.33 L 309,697.33 L 308,698.33 L 307,700.33 L 304,701.33 L 300,703.33 L 296,703.33 L 292,703.33 L 289,702.33 L 286,700.33 L 283,699.33 L 279,698.33 L 277,698.33 L 276,698.33 L 275,698.33 L 274,698.33 L 274,699.33 L 271,701.33 L 268,702.33 L 265,703.33 L 261,703.33 L 258,702.33 L 255,701.33 L 254,700.33 L 254,701.33 L 253,701.33" fill="none" stroke="#3794ff" stroke-width="2"></path><path d="M 309,677.33 L 308,679.33 L 307,680.33 L 307,679.33 L 310,676.33 L 313,673.33 L 314,671.33 L 315,670.33 L 317,670.33 L 319,670.33 L 323,673.33 L 325,677.33 L 327,682.33 L 328,686.33 L 329,687.33" fill="none" stroke="#3794ff" stroke-width="2"></path><path d="M 267,712.33 L 267,713.33 L 268,713.33 L 269,713.33 L 269,712.33 L 269,711.33 L 267,709.33 L 265,706.33 L 263,704.33 L 262,703.33 L 262,704.33 L 263,706.33 L 265,709.33 L 267,712.33 L 267,713.33 L 267,712.33 L 267,709.33 L 266,706.33 L 264,705.33 L 264,704.33 L 264,703.33 L 264,701.33 L 265,697.33 L 267,693.33 L 269,690.33 L 269,689.33 L 270,689.33" fill="none" stroke="#3794ff" stroke-width="2"></path><path d="M 150,665.33 L 148,666.33 L 146,668.33 L 144,669.33 L 142,670.33 L 138,672.33 L 133,673.33 L 130,673.33 L 129,673.33 L 129,675.33 L 128,680.33 L 126,683.33 L 123,687.33 L 119,691.33 L 117,694.33 L 117,695.33 L 117,694.33 L 117,693.33 L 121,688.33 L 126,682.33 L 132,675.33 L 137,671.33 L 141,670.33 L 142,670.33 L 142,673.33 L 142,681.33 L 142,691.33 L 142,697.33 L 142,700.33" fill="none" stroke="#3794ff" stroke-width="2"></path><path d="M 123,685.33 L 124,685.33 L 126,685.33 L 130,685.33 L 134,685.33 L 138,685.33 L 141,685.33 L 143,684.33" fill="none" stroke="#3794ff" stroke-width="2"></path><path d="M 156,668.33 L 157,668.33 L 157,670.33 L 157,675.33 L 157,682.33 L 155,690.33 L 152,696.33 L 152,697.33 L 152,695.33" fill="none" stroke="#3794ff" stroke-width="2"></path><path d="M 155,689.33 L 156,689.33 L 158,687.33 L 160,687.33 L 163,686.33 L 164,685.33 L 165,683.33 L 165,682.33 L 165,681.33 L 163,681.33 L 162,684.33 L 161,687.33 L 160,690.33 L 160,692.33 L 161,692.33 L 162,692.33" fill="none" stroke="#3794ff" stroke-width="2"></path><path d="M 174,686.33 L 174,688.33 L 174,690.33 L 173,694.33 L 172,696.33 L 172,697.33 L 172,695.33 L 173,692.33 L 175,688.33 L 177,685.33 L 179,684.33" fill="none" stroke="#3794ff" stroke-width="2"></path><path d="M 188,687.33 L 188,692.33 L 188,697.33 L 188,701.33 L 188,702.33 L 188,701.33 L 188,698.33" fill="none" stroke="#3794ff" stroke-width="2"></path><path d="M 181,682.33 L 184,682.33 L 189,682.33 L 194,682.33 L 199,683.33 L 201,683.33 L 202,683.33" fill="none" stroke="#3794ff" stroke-width="2"></path><path d="M 209,682.33 L 208,682.33 L 207,685.33 L 206,687.33 L 206,690.33 L 206,692.33 L 207,694.33 L 207,695.33 L 207,697.33 L 207,699.33 L 207,700.33 L 207,701.33 L 206,701.33 L 205,701.33" fill="none" stroke="#3794ff" stroke-width="2"></path><path d="M 226,662.33 L 226,663.33 L 226,667.33 L 226,673.33 L 227,677.33 L 228,684.33 L 229,690.33 L 229,695.33 L 229,698.33 L 229,700.33 L 229,702.33 L 228,705.33 L 228,706.33 L 227,707.33 L 226,708.33 L 226,709.33 L 225,709.33 L 224,711.33 L 221,713.33 L 218,715.33 L 216,715.33 L 211,716.33 L 205,717.33 L 197,717.33 L 187,716.33 L 175,715.33 L 164,714.33 L 153,712.33 L 144,711.33 L 136,710.33 L 132,710.33 L 130,710.33 L 129,710.33 L 128,710.33 L 127,710.33 L 126,709.33 L 125,708.33 L 125,707.33 L 124,707.33 L 124,706.33 L 123,704.33 L 123,701.33 L 123,699.33 L 122,699.33 L 121,699.33 L 120,700.33 L 120,701.33 L 120,693.33 L 120,685.33 L 120,678.33 L 120,667.33 L 122,658.33 L 124,651.33 L 126,646.33 L 127,642.33 L 128,640.33 L 128,639.33 L 129,639.33 L 130,639.33 L 131,639.33 L 139,641.33 L 153,644.33 L 170,647.33 L 188,649.33 L 203,649.33 L 216,650.33 L 224,651.33 L 226,651.33" fill="none" stroke="#3794ff" stroke-width="2"></path></svg>